<?xml version="1.0" standalone="no"?>
<!DOCTYPE svg PUBLIC "-//W3C//DTD SVG 20010904//EN"
 "http://www.w3.org/TR/2001/REC-SVG-20010904/DTD/svg10.dtd">
<svg version="1.0" xmlns="http://www.w3.org/2000/svg"
 width="128.000000pt" height="128.000000pt" viewBox="0 0 128.000000 128.000000"
 preserveAspectRatio="xMidYMid meet">
<metadata>
Created by potrace 1.11, written by Peter Selinger 2001-2013
</metadata>
<g transform="translate(0.000000,128.000000) scale(0.100000,-0.100000)"
fill="#000000" stroke="none">
<path d="M10 1215 c-10 -12 -11 -30 -1 -86 24 -144 80 -256 150 -299 46 -28
46 -29 26 -87 -8 -23 -17 -59 -20 -80 -2 -21 -6 -54 -9 -73 -2 -19 -14 -55
-25 -80 -79 -174 74 -374 334 -435 66 -16 252 -23 300 -12 11 3 34 8 50 12
104 23 220 88 279 156 81 93 95 176 51 293 -14 37 -25 79 -25 94 0 16 -9 63
-20 106 -12 43 -20 79 -18 80 104 60 163 161 189 324 11 69 11 76 -6 88 -20
15 -60 11 -144 -12 -108 -31 -204 -92 -245 -155 l-17 -27 -62 20 c-85 28 -228
28 -314 0 l-62 -20 -17 27 c-53 82 -194 156 -340 176 -30 4 -45 1 -54 -10z"/>
</g>
</svg>
